<?xml version="1.0" encoding="UTF-8"?>
<svg xmlns="http://www.w3.org/2000/svg" version="1.1" viewBox="0 0 800 800">
  <!-- Generator: Adobe Illustrator 29.8.1, SVG Export Plug-In . SVG Version: 2.1.1 Build 2)  -->
  <defs>
    <style>
      .st0 {
        fill: none;
        stroke: #ff5b2e;
        stroke-width: 5; 
      }

      .st1, .st2 {
        fill: #ff5b2e;
      }

      .st3 {
        display: none;
      }

      .st4 {
        fill: none;
        stroke: #0a2a5e;
        stroke-width: 5; 
      }

      .st2 {
        font-family: AlternateGothicNo2BT-Regular, 'AlternateGothic2 BT';
        font-size: 383.98px;
      }
    </style>
  </defs>
  <g id="_x32_">
    <path class="st4" d="M753.66,305.26v-.03h-.05c-26.16-97.67-89.42-175.45-170.58-222.29-81.1-46.86-180.09-62.76-277.8-36.6l-.04.05c-97.66,26.16-175.46,89.42-222.25,170.54-46.86,81.09-62.76,180.13-36.6,277.79l.05.05c26.16,97.65,89.42,175.45,170.54,222.29,54.77,31.63,117.69,49.16,182.84,49.16,31.36,0,63.25-4.06,95-12.56v-.05c97.67-26.16,175.45-89.42,222.29-170.58,46.86-81.1,62.76-180.09,36.6-277.77ZM700.99,262.5c10.82,24.43,18.83,50.37,23.66,77.43h-13.46c-5.05-27.15-13.47-53.09-24.74-77.43h14.54ZM98.21,257.99h14.57c-11.32,24.34-19.72,50.27-24.77,77.42h-13.46c4.83-27.06,12.83-52.99,23.66-77.42ZM98.21,532.97c-10.83-24.42-18.83-50.35-23.66-77.41h13.46c5.05,27.13,13.45,53.08,24.77,77.41h-14.57ZM95.52,404.56l6.4,26.21-22.9-14.21-22.95,14.21,6.39-26.21-20.57-17.4,26.88-2,10.25-24.97,10.19,24.97,26.88,2-20.57,17.4ZM584.39,584.8c-47.28,47.32-112.64,76.56-184.79,76.56s-137.52-29.24-184.84-76.56-76.57-112.64-76.57-184.8,29.29-137.52,76.57-184.8c47.32-47.32,112.64-76.56,184.84-76.56s137.51,29.24,184.79,76.56c47.28,47.28,76.57,112.64,76.57,184.8s-29.29,137.52-76.57,184.8ZM700.99,537.48h-14.54c11.27-24.32,19.69-50.27,24.74-77.42h13.46c-4.79,27.06-12.84,53.01-23.66,77.42ZM720.23,421.06l-22.96,14.22,6.4-26.2-20.58-17.4,26.89-2.02,10.25-24.96,10.19,24.96,26.88,2.02-20.58,17.4,6.4,26.2-22.89-14.22ZM753.66,305.26v-.03h-.05c-26.16-97.67-89.42-175.45-170.58-222.29-81.1-46.86-180.09-62.76-277.8-36.6l-.04.05c-97.66,26.16-175.46,89.42-222.25,170.54-46.86,81.09-62.76,180.13-36.6,277.79l.05.05c26.16,97.65,89.42,175.45,170.54,222.29,54.77,31.63,117.69,49.16,182.84,49.16,31.36,0,63.25-4.06,95-12.56v-.05c97.67-26.16,175.45-89.42,222.29-170.58,46.86-81.1,62.76-180.09,36.6-277.77ZM700.99,262.5c10.82,24.43,18.83,50.37,23.66,77.43h-13.46c-5.05-27.15-13.47-53.09-24.74-77.43h14.54ZM98.21,257.99h14.57c-11.32,24.34-19.72,50.27-24.77,77.42h-13.46c4.83-27.06,12.83-52.99,23.66-77.42ZM98.21,532.97c-10.83-24.42-18.83-50.35-23.66-77.41h13.46c5.05,27.13,13.45,53.08,24.77,77.41h-14.57ZM95.52,404.56l6.4,26.21-22.9-14.21-22.95,14.21,6.39-26.21-20.57-17.4,26.88-2,10.25-24.97,10.19,24.97,26.88,2-20.57,17.4ZM584.39,584.8c-47.28,47.32-112.64,76.56-184.79,76.56s-137.52-29.24-184.84-76.56-76.57-112.64-76.57-184.8,29.29-137.52,76.57-184.8c47.32-47.32,112.64-76.56,184.84-76.56s137.51,29.24,184.79,76.56c47.28,47.28,76.57,112.64,76.57,184.8s-29.29,137.52-76.57,184.8ZM700.99,537.48h-14.54c11.27-24.32,19.69-50.27,24.74-77.42h13.46c-4.79,27.06-12.84,53.01-23.66,77.42ZM720.23,421.06l-22.96,14.22,6.4-26.2-20.58-17.4,26.89-2.02,10.25-24.96,10.19,24.96,26.88,2.02-20.58,17.4,6.4,26.2-22.89-14.22ZM753.66,305.26v-.03h-.05c-26.16-97.67-89.42-175.45-170.58-222.29-81.1-46.86-180.09-62.76-277.8-36.6l-.04.05c-97.66,26.16-175.46,89.42-222.25,170.54-46.86,81.09-62.76,180.13-36.6,277.79l.05.05c26.16,97.65,89.42,175.45,170.54,222.29,54.77,31.63,117.69,49.16,182.84,49.16,31.36,0,63.25-4.06,95-12.56v-.05c97.67-26.16,175.45-89.42,222.29-170.58,46.86-81.1,62.76-180.09,36.6-277.77ZM700.99,262.5c10.82,24.43,18.83,50.37,23.66,77.43h-13.46c-5.05-27.15-13.47-53.09-24.74-77.43h14.54ZM98.21,257.99h14.57c-11.32,24.34-19.72,50.27-24.77,77.42h-13.46c4.83-27.06,12.83-52.99,23.66-77.42ZM98.21,532.97c-10.83-24.42-18.83-50.35-23.66-77.41h13.46c5.05,27.13,13.45,53.08,24.77,77.41h-14.57ZM95.52,404.56l6.4,26.21-22.9-14.21-22.95,14.21,6.39-26.21-20.57-17.4,26.88-2,10.25-24.97,10.19,24.97,26.88,2-20.57,17.4ZM584.39,584.8c-47.28,47.32-112.64,76.56-184.79,76.56s-137.52-29.24-184.84-76.56-76.57-112.64-76.57-184.8,29.29-137.52,76.57-184.8c47.32-47.32,112.64-76.56,184.84-76.56s137.51,29.24,184.79,76.56c47.28,47.28,76.57,112.64,76.57,184.8s-29.29,137.52-76.57,184.8ZM700.99,537.48h-14.54c11.27-24.32,19.69-50.27,24.74-77.42h13.46c-4.79,27.06-12.84,53.01-23.66,77.42ZM720.23,421.06l-22.96,14.22,6.4-26.2-20.58-17.4,26.89-2.02,10.25-24.96,10.19,24.96,26.88,2.02-20.58,17.4,6.4,26.2-22.89-14.22ZM753.66,305.26v-.03h-.05c-26.16-97.67-89.42-175.45-170.58-222.29-81.1-46.86-180.09-62.76-277.8-36.6l-.04.05c-97.66,26.16-175.46,89.42-222.25,170.54-46.86,81.09-62.76,180.13-36.6,277.79l.05.05c26.16,97.65,89.42,175.45,170.54,222.29,54.77,31.63,117.69,49.16,182.84,49.16,31.36,0,63.25-4.06,95-12.56v-.05c97.67-26.16,175.45-89.42,222.29-170.58,46.86-81.1,62.76-180.09,36.6-277.77ZM700.99,262.5c10.82,24.43,18.83,50.37,23.66,77.43h-13.46c-5.05-27.15-13.47-53.09-24.74-77.43h14.54ZM98.21,257.99h14.57c-11.32,24.34-19.72,50.27-24.77,77.42h-13.46c4.83-27.06,12.83-52.99,23.66-77.42ZM98.21,532.97c-10.83-24.42-18.83-50.35-23.66-77.41h13.46c5.05,27.13,13.45,53.08,24.77,77.41h-14.57ZM95.52,404.56l6.4,26.21-22.9-14.21-22.95,14.21,6.39-26.21-20.57-17.4,26.88-2,10.25-24.97,10.19,24.97,26.88,2-20.57,17.4ZM584.39,584.8c-47.28,47.32-112.64,76.56-184.79,76.56s-137.52-29.24-184.84-76.56-76.57-112.64-76.57-184.8,29.29-137.52,76.57-184.8c47.32-47.32,112.64-76.56,184.84-76.56s137.51,29.24,184.79,76.56c47.28,47.28,76.57,112.64,76.57,184.8s-29.29,137.52-76.57,184.8ZM700.99,537.48h-14.54c11.27-24.32,19.69-50.27,24.74-77.42h13.46c-4.79,27.06-12.84,53.01-23.66,77.42ZM720.23,421.06l-22.96,14.22,6.4-26.2-20.58-17.4,26.89-2.02,10.25-24.96,10.19,24.96,26.88,2.02-20.58,17.4,6.4,26.2-22.89-14.22ZM682.85,117.15C610.44,44.78,510.43,0,400,0S189.56,44.78,117.15,117.15C44.78,189.56,0,289.57,0,400s44.78,210.44,117.15,282.85c72.41,72.37,172.42,117.15,282.85,117.15s210.44-44.78,282.85-117.15c72.37-72.41,117.15-172.42,117.15-282.85s-44.78-210.44-117.15-282.85ZM499,769.43h-.05c-101.96,27.32-205.4,10.69-290.17-38.23-42.38-24.48-80.1-57.02-110.64-96.21-30.54-39.18-53.9-84.98-67.57-135.99h.05l-.05-.05c-8.88-33.13-13.12-66.42-13.12-99.18,0-68.03,18.3-133.76,51.35-190.99C117.75,124.01,199,57.93,300.96,30.57h.09c101.96-27.32,205.4-10.73,290.17,38.23,84.78,48.9,150.85,130.2,178.21,232.2v.05c27.32,101.96,10.73,205.4-38.23,290.17-48.95,84.77-130.2,150.85-232.2,178.21ZM753.66,305.23h-.05c-26.16-97.67-89.42-175.45-170.58-222.29-81.1-46.86-180.09-62.76-277.8-36.6l-.04.05c-97.66,26.16-175.46,89.42-222.25,170.54-46.86,81.09-62.76,180.13-36.6,277.79l.05.05c26.16,97.65,89.42,175.45,170.54,222.29,54.77,31.63,117.69,49.16,182.84,49.16,31.36,0,63.25-4.06,95-12.56v-.05c97.67-26.16,175.45-89.42,222.29-170.58,46.86-81.1,62.76-180.09,36.6-277.77v-.03ZM700.99,262.5c10.82,24.43,18.83,50.37,23.66,77.43h-13.46c-5.05-27.15-13.47-53.09-24.74-77.43h14.54ZM98.21,257.99h14.57c-11.32,24.34-19.72,50.27-24.77,77.42h-13.46c4.83-27.06,12.83-52.99,23.66-77.42ZM98.21,532.97c-10.83-24.42-18.83-50.35-23.66-77.41h13.46c5.05,27.13,13.45,53.08,24.77,77.41h-14.57ZM95.52,404.56l6.4,26.21-22.9-14.21-22.95,14.21,6.39-26.21-20.57-17.4,26.88-2,10.25-24.97,10.19,24.97,26.88,2-20.57,17.4ZM584.39,584.8c-47.28,47.32-112.64,76.56-184.79,76.56s-137.52-29.24-184.84-76.56-76.57-112.64-76.57-184.8,29.29-137.52,76.57-184.8c47.32-47.32,112.64-76.56,184.84-76.56s137.51,29.24,184.79,76.56c47.28,47.28,76.57,112.64,76.57,184.8s-29.29,137.52-76.57,184.8ZM700.99,537.48h-14.54c11.27-24.32,19.69-50.27,24.74-77.42h13.46c-4.79,27.06-12.84,53.01-23.66,77.42ZM757.3,391.68l-20.58,17.4,6.4,26.2-22.89-14.22-22.96,14.22,6.4-26.2-20.58-17.4,26.89-2.02,10.25-24.96,10.19,24.96,26.88,2.02ZM753.66,305.26v-.03h-.05c-26.16-97.67-89.42-175.45-170.58-222.29-81.1-46.86-180.09-62.76-277.8-36.6l-.04.05c-97.66,26.16-175.46,89.42-222.25,170.54-46.86,81.09-62.76,180.13-36.6,277.79l.05.05c26.16,97.65,89.42,175.45,170.54,222.29,54.77,31.63,117.69,49.16,182.84,49.16,31.36,0,63.25-4.06,95-12.56v-.05c97.67-26.16,175.45-89.42,222.29-170.58,46.86-81.1,62.76-180.09,36.6-277.77ZM700.99,262.5c10.82,24.43,18.83,50.37,23.66,77.43h-13.46c-5.05-27.15-13.47-53.09-24.74-77.43h14.54ZM98.21,257.99h14.57c-11.32,24.34-19.72,50.27-24.77,77.42h-13.46c4.83-27.06,12.83-52.99,23.66-77.42ZM98.21,532.97c-10.83-24.42-18.83-50.35-23.66-77.41h13.46c5.05,27.13,13.45,53.08,24.77,77.41h-14.57ZM95.52,404.56l6.4,26.21-22.9-14.21-22.95,14.21,6.39-26.21-20.57-17.4,26.88-2,10.25-24.97,10.19,24.97,26.88,2-20.57,17.4ZM584.39,584.8c-47.28,47.32-112.64,76.56-184.79,76.56s-137.52-29.24-184.84-76.56-76.57-112.64-76.57-184.8,29.29-137.52,76.57-184.8c47.32-47.32,112.64-76.56,184.84-76.56s137.51,29.24,184.79,76.56c47.28,47.28,76.57,112.64,76.57,184.8s-29.29,137.52-76.57,184.8ZM700.99,537.48h-14.54c11.27-24.32,19.69-50.27,24.74-77.42h13.46c-4.79,27.06-12.84,53.01-23.66,77.42ZM720.23,421.06l-22.96,14.22,6.4-26.2-20.58-17.4,26.89-2.02,10.25-24.96,10.19,24.96,26.88,2.02-20.58,17.4,6.4,26.2-22.89-14.22ZM753.66,305.26v-.03h-.05c-26.16-97.67-89.42-175.45-170.58-222.29-81.1-46.86-180.09-62.76-277.8-36.6l-.04.05c-97.66,26.16-175.46,89.42-222.25,170.54-46.86,81.09-62.76,180.13-36.6,277.79l.05.05c26.16,97.65,89.42,175.45,170.54,222.29,54.77,31.63,117.69,49.16,182.84,49.16,31.36,0,63.25-4.06,95-12.56v-.05c97.67-26.16,175.45-89.42,222.29-170.58,46.86-81.1,62.76-180.09,36.6-277.77ZM700.99,262.5c10.82,24.43,18.83,50.37,23.66,77.43h-13.46c-5.05-27.15-13.47-53.09-24.74-77.43h14.54ZM98.21,257.99h14.57c-11.32,24.34-19.72,50.27-24.77,77.42h-13.46c4.83-27.06,12.83-52.99,23.66-77.42ZM98.21,532.97c-10.83-24.42-18.83-50.35-23.66-77.41h13.46c5.05,27.13,13.45,53.08,24.77,77.41h-14.57ZM95.52,404.56l6.4,26.21-22.9-14.21-22.95,14.21,6.39-26.21-20.57-17.4,26.88-2,10.25-24.97,10.19,24.97,26.88,2-20.57,17.4ZM584.39,584.8c-47.28,47.32-112.64,76.56-184.79,76.56s-137.52-29.24-184.84-76.56-76.57-112.64-76.57-184.8,29.29-137.52,76.57-184.8c47.32-47.32,112.64-76.56,184.84-76.56s137.51,29.24,184.79,76.56c47.28,47.28,76.57,112.64,76.57,184.8s-29.29,137.52-76.57,184.8ZM700.99,537.48h-14.54c11.27-24.32,19.69-50.27,24.74-77.42h13.46c-4.79,27.06-12.84,53.01-23.66,77.42ZM720.23,421.06l-22.96,14.22,6.4-26.2-20.58-17.4,26.89-2.02,10.25-24.96,10.19,24.96,26.88,2.02-20.58,17.4,6.4,26.2-22.89-14.22ZM753.66,305.26v-.03h-.05c-26.16-97.67-89.42-175.45-170.58-222.29-81.1-46.86-180.09-62.76-277.8-36.6l-.04.05c-97.66,26.16-175.46,89.42-222.25,170.54-46.86,81.09-62.76,180.13-36.6,277.79l.05.05c26.16,97.65,89.42,175.45,170.54,222.29,54.77,31.63,117.69,49.16,182.84,49.16,31.36,0,63.25-4.06,95-12.56v-.05c97.67-26.16,175.45-89.42,222.29-170.58,46.86-81.1,62.76-180.09,36.6-277.77ZM700.99,262.5c10.82,24.43,18.83,50.37,23.66,77.43h-13.46c-5.05-27.15-13.47-53.09-24.74-77.43h14.54ZM98.21,257.99h14.57c-11.32,24.34-19.72,50.27-24.77,77.42h-13.46c4.83-27.06,12.83-52.99,23.66-77.42ZM98.21,532.97c-10.83-24.42-18.83-50.35-23.66-77.41h13.46c5.05,27.13,13.45,53.08,24.77,77.41h-14.57ZM95.52,404.56l6.4,26.21-22.9-14.21-22.95,14.21,6.39-26.21-20.57-17.4,26.88-2,10.25-24.97,10.19,24.97,26.88,2-20.57,17.4ZM584.39,584.8c-47.28,47.32-112.64,76.56-184.79,76.56s-137.52-29.24-184.84-76.56-76.57-112.64-76.57-184.8,29.29-137.52,76.57-184.8c47.32-47.32,112.64-76.56,184.84-76.56s137.51,29.24,184.79,76.56c47.28,47.28,76.57,112.64,76.57,184.8s-29.29,137.52-76.57,184.8ZM700.99,537.48h-14.54c11.27-24.32,19.69-50.27,24.74-77.42h13.46c-4.79,27.06-12.84,53.01-23.66,77.42ZM720.23,421.06l-22.96,14.22,6.4-26.2-20.58-17.4,26.89-2.02,10.25-24.96,10.19,24.96,26.88,2.02-20.58,17.4,6.4,26.2-22.89-14.22ZM753.66,305.26v-.03h-.05c-26.16-97.67-89.42-175.45-170.58-222.29-81.1-46.86-180.09-62.76-277.8-36.6l-.04.05c-97.66,26.16-175.46,89.42-222.25,170.54-46.86,81.09-62.76,180.13-36.6,277.79l.05.05c26.16,97.65,89.42,175.45,170.54,222.29,54.77,31.63,117.69,49.16,182.84,49.16,31.36,0,63.25-4.06,95-12.56v-.05c97.67-26.16,175.45-89.42,222.29-170.58,46.86-81.1,62.76-180.09,36.6-277.77ZM700.99,262.5c10.82,24.43,18.83,50.37,23.66,77.43h-13.46c-5.05-27.15-13.47-53.09-24.74-77.43h14.54ZM98.21,257.99h14.57c-11.32,24.34-19.72,50.27-24.77,77.42h-13.46c4.83-27.06,12.83-52.99,23.66-77.42ZM98.21,532.97c-10.83-24.42-18.83-50.35-23.66-77.41h13.46c5.05,27.13,13.45,53.08,24.77,77.41h-14.57ZM95.52,404.56l6.4,26.21-22.9-14.21-22.95,14.21,6.39-26.21-20.57-17.4,26.88-2,10.25-24.97,10.19,24.97,26.88,2-20.57,17.4ZM584.39,584.8c-47.28,47.32-112.64,76.56-184.79,76.56s-137.52-29.24-184.84-76.56-76.57-112.64-76.57-184.8,29.29-137.52,76.57-184.8c47.32-47.32,112.64-76.56,184.84-76.56s137.51,29.24,184.79,76.56c47.28,47.28,76.57,112.64,76.57,184.8s-29.29,137.52-76.57,184.8ZM700.99,537.48h-14.54c11.27-24.32,19.69-50.27,24.74-77.42h13.46c-4.79,27.06-12.84,53.01-23.66,77.42ZM720.23,421.06l-22.96,14.22,6.4-26.2-20.58-17.4,26.89-2.02,10.25-24.96,10.19,24.96,26.88,2.02-20.58,17.4,6.4,26.2-22.89-14.22Z"/>
    <g>
      <g class="st3">
        <path class="st1" d="M343.71,291.99c0-11.88-1.96-19.92-5.87-24.09-3.92-4.21-9.19-6.3-15.75-6.3s-11.83,1.96-15.79,5.92-5.87,10.68-5.87,20.3v28.48h-39.5v-25.79c0-21.54,5.28-38.05,15.75-49.59,10.51-11.54,26.05-17.28,46.52-17.28s36.05,5.75,46.52,17.28c10.51,11.53,15.79,28.05,15.79,49.59,0,13.92-2.04,26.52-6.09,37.76-4.04,11.28-9.19,21.54-15.36,30.77-6.21,9.24-12.94,17.79-20.13,25.62-7.24,7.87-13.92,15.32-20.13,22.43-6.21,7.06-11.32,13.96-15.41,20.69-4.04,6.72-6.04,13.75-6.04,21.07,0,2.55.13,4.43.38,5.7h79v37.97h-120.8v-32.65c0-12.9,2.04-24.3,6.09-34.18,4.04-9.87,9.19-18.94,15.37-27.16,6.21-8.22,12.85-15.96,19.96-23.15,7.07-7.24,13.7-14.9,19.92-22.99,6.21-8.09,11.32-16.98,15.41-26.6,4.04-9.62,6.04-20.86,6.04-33.8h0ZM454.04,431.39c0,9.62,1.95,16.39,5.87,20.31,3.96,3.92,9.19,5.92,15.79,5.92s11.83-2,15.75-5.92c3.91-3.92,5.87-10.68,5.87-20.31v-143.57c0-9.62-1.96-16.39-5.87-20.3-3.92-3.96-9.19-5.92-15.75-5.92s-11.83,1.96-15.79,5.92c-3.92,3.92-5.87,10.68-5.87,20.3v143.57ZM412.28,290.5c0-21.54,5.41-38.05,16.3-49.59,10.9-11.54,26.6-17.28,47.12-17.28s36.18,5.75,47.08,17.28c10.89,11.53,16.34,28.05,16.34,49.59v138.21c0,21.54-5.45,38.05-16.34,49.59-10.9,11.53-26.61,17.28-47.08,17.28s-36.22-5.75-47.12-17.28c-10.89-11.54-16.3-28.05-16.3-49.59v-138.21Z"/>
      </g>
      <path class="st1" d="M275.96,588.14l-14.05-47.27h11.62l8.46,32.24,8.52-32.24h10.58l-14.05,47.27v23.42h-11.07v-23.42ZM333.87,570.68h15.21v10.1h-15.21v20.68h19.16v10.1h-30.29v-70.69h30.29v10.1h-19.16v19.71ZM413.07,611.56h-11.19l-1.95-12.84h-13.63l-1.95,12.84h-10.16l11.31-70.69h16.24l11.31,70.69ZM387.71,589.17h10.71l-5.35-35.77-5.35,35.77ZM458.64,611.56c-.12-.43-.24-.91-.37-1.28-.12-.42-.24-.91-.36-1.52-.12-.6-.18-1.4-.18-2.31-.06-.97-.06-2.13-.06-3.53v-11.13c0-3.28-.61-5.66-1.7-7-1.15-1.34-3.04-2.01-5.6-2.01h-3.83v28.78h-11.13v-70.69h16.79c5.78,0,9.98,1.34,12.59,4.01,2.56,2.74,3.89,6.81,3.89,12.23v5.6c0,7.23-2.43,12.05-7.3,14.3,2.86,1.15,4.8,3.04,5.84,5.66,1.03,2.55,1.52,5.72,1.52,9.43v10.89c0,1.76.12,3.29.25,4.63.12,1.28.49,2.62.97,3.95h-11.32ZM446.53,550.97v21.72h4.32c2.13,0,3.77-.54,4.93-1.64,1.15-1.03,1.76-2.98,1.76-5.84v-6.94c0-2.62-.43-4.44-1.34-5.6-.91-1.15-2.37-1.71-4.32-1.71h-5.35ZM491.79,557.84c0-5.72,1.4-10.1,4.13-13.2,2.74-3.04,6.81-4.56,12.29-4.56s9.49,1.52,12.23,4.56c2.74,3.1,4.13,7.48,4.13,13.2v2.19h-10.52v-2.92c0-2.56-.49-4.32-1.46-5.41-.97-1.04-2.37-1.52-4.14-1.52s-3.1.49-4.08,1.52c-.97,1.1-1.46,2.86-1.46,5.41s.55,4.56,1.64,6.45c1.04,1.83,2.44,3.59,4.02,5.23,1.64,1.64,3.34,3.29,5.23,4.93,1.82,1.71,3.59,3.47,5.17,5.41,1.64,1.95,2.98,4.2,4.08,6.69,1.03,2.49,1.58,5.41,1.58,8.76,0,5.77-1.4,10.15-4.2,13.2-2.8,3.1-6.87,4.62-12.35,4.62s-9.61-1.52-12.41-4.62c-2.8-3.04-4.2-7.42-4.2-13.2v-4.32h10.52v5.05c0,2.56.54,4.32,1.58,5.35,1.03,1.03,2.43,1.52,4.2,1.52s3.16-.49,4.2-1.52c1.03-1.03,1.58-2.8,1.58-5.35s-.55-4.56-1.64-6.39c-1.09-1.88-2.43-3.65-4.01-5.29-1.64-1.64-3.41-3.29-5.23-4.93-1.83-1.64-3.59-3.47-5.23-5.41-1.58-1.95-2.92-4.2-4.01-6.69-1.09-2.5-1.64-5.41-1.64-8.76h0Z"/>
    </g>
    <g>
      <path class="st0" d="M177.19,212.26l-39.88-46.71,9.43-8.05,17.71,20.74,1.34-37.01,12.68-10.83-2.05,33.21,42.89,12.68-12.2,10.42-31.55-10.96-.98,14.33,12.05,14.11-9.43,8.05Z"/>
      <path class="st0" d="M270.82,147.1l-11.71,6.69-11.58-9.45-21.31,12.18,2.52,14.63-11.42,6.53-9.7-65.19,11.39-6.5,51.82,41.12ZM238.94,137.33l-18.65-15.59,4.1,23.9,14.55-8.31Z"/>
      <path class="st0" d="M274.66,145.98l-19.91-58.1,24.69-8.46c6.21-2.13,10.9-3.15,14.07-3.07,3.17.08,6.06,1.16,8.66,3.25,2.6,2.09,4.5,4.85,5.67,8.29,1.49,4.36,1.45,8.4-.14,12.12-1.59,3.72-4.81,6.82-9.65,9.31,3.04.61,5.69,1.52,7.95,2.72,2.26,1.2,5.56,3.59,9.91,7.14l10.98,8.9-14.03,4.81-12.81-9.74c-4.56-3.49-7.6-5.63-9.11-6.42-1.51-.8-2.96-1.2-4.36-1.21-1.39-.01-3.43.45-6.13,1.37l-2.38.81,8.31,24.25-11.73,4.02ZM274.9,108.43l8.68-2.97c5.63-1.93,9.06-3.37,10.3-4.33,1.24-.96,2.05-2.15,2.45-3.58.39-1.43.29-3.02-.31-4.77-.67-1.95-1.73-3.35-3.19-4.2-1.46-.84-3.19-1.1-5.2-.76-1,.19-3.87,1.11-8.63,2.74l-9.15,3.14,5.05,14.74Z"/>
      <path class="st0" d="M385.79,119.89l-13.36,1.89-7.27-13.06-24.31,3.45-3.06,14.52-13.02,1.85,15.06-64.16,12.98-1.84,32.97,57.35ZM359.77,99.04l-11.58-21.38-5.01,23.73,16.59-2.35Z"/>
      <path class="st0" d="M409.63,120.24l6.6-61.06,12.33,1.33-2.6,24.03,24.16,2.61,2.6-24.03,12.33,1.33-6.6,61.06-12.33-1.33,2.89-26.7-24.16-2.61-2.89,26.7-12.33-1.33Z"/>
      <path class="st0" d="M475.04,97.62c1.87-5.97,4.34-10.7,7.39-14.19,2.27-2.57,4.93-4.67,7.98-6.32,3.05-1.65,6.13-2.61,9.23-2.9,4.13-.4,8.59.15,13.36,1.65,8.63,2.71,14.7,7.55,18.2,14.54,3.5,6.98,3.76,15.24.76,24.78-2.97,9.46-7.86,16.05-14.68,19.78-6.82,3.73-14.53,4.24-23.14,1.54-8.71-2.73-14.81-7.57-18.28-14.5-3.47-6.93-3.75-15.06-.82-24.38ZM487.36,101.05c-2.08,6.64-2.13,12.15-.14,16.53,1.99,4.39,5.34,7.32,10.06,8.8s9.12,1,13.21-1.45c4.09-2.45,7.2-7.07,9.33-13.87,2.11-6.72,2.21-12.19.3-16.42-1.91-4.23-5.3-7.11-10.18-8.64-4.88-1.53-9.33-1.09-13.37,1.32-4.03,2.41-7.11,6.98-9.22,13.72Z"/>
      <path class="st0" d="M574.29,146.63l8.72,9.11c-4.83,5-9.91,7.89-15.23,8.69-5.32.8-10.88-.39-16.66-3.55-7.15-3.91-11.7-9.57-13.63-16.98s-.58-15.35,4.06-23.83c4.9-8.97,11.03-14.67,18.37-17.1s14.79-1.58,22.34,2.55c6.59,3.6,10.88,8.48,12.87,14.63,1.19,3.64,1.22,7.96.09,12.94l-12.18-3.32c.89-3.14.77-6.07-.37-8.8s-3.15-4.88-6.04-6.46c-3.99-2.18-8.02-2.52-12.07-1.02s-7.84,5.47-11.35,11.89c-3.73,6.81-5.15,12.33-4.29,16.56.87,4.23,3.26,7.42,7.18,9.56,2.89,1.58,5.88,2.02,8.97,1.32s6.16-2.77,9.23-6.22Z"/>
      <path class="st0" d="M623.3,212l-10.42-8.57,4.72-14.18-18.96-15.59-12.77,7.56-10.16-8.35,57.48-32.25,10.13,8.33-20.01,63.06ZM621.1,178.73l7.94-22.98-20.88,12.34,12.94,10.64Z"/>
    </g>
    <g>
      <path class="st0" d="M134.21,628.66l43.93-42.92,31.82,32.57-7.43,7.26-23.16-23.7-9.74,9.51,21.55,22.05-7.4,7.23-21.55-22.05-11.96,11.68,23.98,24.54-7.4,7.23-32.64-33.41Z"/>
      <path class="st0" d="M175.21,669.68l35.62-14.09,1.38-34.96,11.85,8.35-1.31,23.22,21.23-9.17,11.74,8.28-32.8,13.37-1.05,37.91-12.22-8.62,1.11-25.2-23.4,9.49-12.15-8.57Z"/>
      <path class="st0" d="M233.77,708.8l25.64-55.8,18.08,8.31c6.85,3.15,11.19,5.48,13.01,6.99,2.81,2.31,4.65,5.36,5.52,9.15.87,3.8.28,7.91-1.76,12.35-1.57,3.43-3.52,6.02-5.84,7.78-2.32,1.76-4.74,2.87-7.27,3.32s-4.88.44-7.06-.04c-2.94-.7-6.95-2.23-12.05-4.57l-7.35-3.38-9.67,21.05-11.27-5.18ZM266.34,667.62l-7.28,15.84,6.17,2.83c4.44,2.04,7.54,3.11,9.31,3.22,1.77.1,3.36-.27,4.78-1.12,1.42-.85,2.51-2.1,3.27-3.75.93-2.03,1.11-3.98.52-5.85-.59-1.87-1.72-3.39-3.39-4.56-1.23-.87-3.87-2.24-7.93-4.11l-5.44-2.5Z"/>
      <path class="st0" d="M292.87,733.98l14.95-59.57,44.17,11.09-2.53,10.08-32.14-8.07-3.31,13.21,29.9,7.51-2.52,10.04-29.9-7.51-4.07,16.21,33.28,8.35-2.52,10.04-45.3-11.37Z"/>
      <path class="st0" d="M355.85,748.05l3.37-61.32,26.06,1.43c6.55.36,11.28,1.17,14.19,2.44,2.91,1.27,5.18,3.35,6.81,6.27,1.63,2.92,2.35,6.18,2.15,9.81-.25,4.6-1.81,8.33-4.68,11.17-2.87,2.85-7.02,4.52-12.44,5,2.59,1.71,4.71,3.54,6.35,5.51,1.64,1.96,3.81,5.41,6.5,10.34l6.83,12.38-14.81-.81-8.22-13.83c-2.92-4.94-4.93-8.07-6.03-9.37-1.1-1.3-2.3-2.22-3.58-2.76-1.29-.53-3.35-.88-6.19-1.03l-2.51-.14-1.41,25.6-12.38-.68ZM370.17,713.34l9.16.5c5.94.33,9.66.28,11.17-.14,1.51-.42,2.71-1.22,3.61-2.4.9-1.18,1.41-2.69,1.51-4.53.11-2.06-.35-3.76-1.38-5.09-1.03-1.33-2.54-2.22-4.53-2.66-1-.19-4-.43-9.02-.71l-9.66-.53-.85,15.56Z"/>
      <path class="st0" d="M422.4,749.28l-4.93-61.22,12.36-.99,4.93,61.22-12.36.99Z"/>
      <path class="st0" d="M451.5,746.9l-12.82-60.06,44.53-9.51,2.17,10.16-32.41,6.92,2.84,13.31,30.15-6.44,2.16,10.12-30.15,6.44,3.49,16.35,33.55-7.16,2.16,10.12-45.68,9.75Z"/>
      <path class="st0" d="M514.36,731.73l-24.07-56.5,11.1-4.73,39.2,27.88-16.08-37.73,10.6-4.52,24.07,56.5-11.45,4.88-38.47-27.14,15.7,36.84-10.6,4.52Z"/>
      <path class="st0" d="M597.02,661.83l12.07-3.66c2.27,6.57,2.57,12.41.87,17.52-1.69,5.11-5.25,9.53-10.69,13.26-6.72,4.62-13.83,6.11-21.31,4.49-7.48-1.62-13.96-6.42-19.43-14.38-5.79-8.43-8.1-16.46-6.95-24.11,1.15-7.65,5.27-13.91,12.36-18.78,6.19-4.25,12.48-5.88,18.86-4.87,3.79.58,7.65,2.51,11.58,5.77l-8.46,9.37c-2.4-2.21-5.07-3.43-8.02-3.64-2.94-.22-5.77.61-8.49,2.47-3.75,2.58-5.87,6.01-6.36,10.31-.49,4.3,1.34,9.46,5.48,15.5,4.39,6.4,8.68,10.17,12.84,11.3,4.17,1.14,8.09.44,11.78-2.09,2.72-1.87,4.46-4.33,5.23-7.4s.31-6.75-1.38-11.04Z"/>
      <path class="st0" d="M633.3,661.79l-43.77-43.08,31.94-32.45,7.4,7.29-23.24,23.62,9.7,9.55,21.63-21.97,7.38,7.26-21.63,21.97,11.91,11.73,24.07-24.45,7.37,7.26-32.77,33.29Z"/>
    </g>
  </g>
  <g id="Layer_1">
  <text id="animated-number" class="st2" x="400" y="500" text-anchor="middle">1</text>
  </g>
  <script type="application/ecmascript"><![CDATA[
    var text = document.getElementById('animated-number');
    var current = 1;
    function animateNumbers() {
  if (current <= 30) {
        text.textContent = current;
        current++;
        setTimeout(animateNumbers, 150);
      } else {
        setTimeout(function() {
          current = 1;
          setTimeout(animateNumbers, 2000); // تأخير 2 ثانية قبل إعادة العد
        }, 5000);
      }
    }
    setTimeout(animateNumbers, 2000); // تأخير أولي 2 ثانية قبل بدء العد
  ]]></script>
</svg>