<?xml version="1.0" encoding="UTF-8"?>
<svg id="Layer_1" xmlns="http://www.w3.org/2000/svg" version="1.1" viewBox="0 0 1666.13 700">
  <!-- Generator: Adobe Illustrator 29.8.1, SVG Export Plug-In . SVG Version: 2.1.1 Build 2)  -->
  <defs>
    <style>
      .st0 {
        fill: #f54b1a;
      }

      .st1 {
        fill: #153d7a;
      }
    </style>
  </defs>
  <g id="svg1">
    <g>
      <animateTransform accumulate="none" additive="replace" attributeName="transform" calcMode="linear" dur="2s" fill="remove" keyTimes="0;0.2;0.5;0.7;1" repeatCount="indefinite" restart="always" type="translate" values="0,0;0,-30;0,0;0,10;0,0"/>
      <animateTransform accumulate="none" additive="replace" attributeName="transform" calcMode="linear" dur="2s" fill="remove" keyTimes="0;0.2;0.5;0.7;1" repeatCount="indefinite" restart="always" type="rotate" values="0 210 340;15 210 340;0 210 340;-10 210 340;0 210 340"/>
      <path class="st0" d="M297.02,296.42h0c-11.98-16.09-28.69-17.06-38.83,1.66-16.18,29.56-7.52,108.2,18.72,130.24,14.26,11.9,27.73,1.75,33.85-12.86,12.68-30.09,5.6-92.8-13.82-119.04h.09,0ZM300.61,405.05c-3.06,9.89-8.66,22.22-18.54,9.8-16.45-20.64-21.78-66.21-17.76-91.93,1.84-11.46,8.57-37.61,22.22-18.72h0c16.01,22.22,22.04,74.87,14.08,100.85h0Z"/>
      <path class="st0" d="M303.24,242.89c-2.36-7.26,3.67-23.88-5.77-26.68-1.93-.53-10.32.44-11.02-.53-1.23-13.91,6.82-40.85-12.33-44.96h-.17c-5.07-1.14-39.53-1.48-45.13-.7-7.61,1.05-13.3,5.77-14.61,13.56-.87,5.42,1.05,27.99-.35,30.7-1.66,3.06-15.05-3.94-16.88,7.09-.79,4.64,1.05,16.01-.61,19.42-1.84,3.85-11.02,12.86-14.43,17.67-39.62,55.98-43.99,143.36-32.89,209.13,2.36,13.91,3.06,24.93,17.23,32.19,7.43,3.76,20.38,2.8,28.95,3.06,40.24,1.14,80.64.44,120.97,1.31,24.58-2.18,26.5-22.04,29.91-41.72,12.68-72.95,9.1-161.47-42.86-219.54h0ZM227.49,186.3c.17-1.05,0-1.93,1.05-2.71,2.97-2.1,36.48,1.31,42.6,0,1.05,0,1.57.79,2.1,1.57,1.93,2.97,0,25.8,0,30.79l-45.75-.26h.09c.79-8.66-1.57-21.34-.09-29.39ZM211.66,228.2l78.2,1.84c-.61,2.45,1.14,8.31-1.66,9.27l-77.76-.61c.09-2.36-1.4-9.62,1.23-10.5h0ZM330.17,477.48c-1.75,7.52-6.56,13.56-14.69,13.82l-136.27-1.66c-6.3-.35-11.63-3.24-14.08-9.27-2.45-6.03-3.94-22.39-4.81-29.39-6.82-54.93-3.24-118.96,23.09-168.55,2.88-5.42,17.76-29.91,22.39-31.14l86.77,1.14c2.8.7,6.91,6.3,8.83,8.75h-.09c42.68,55.02,44.08,151.14,28.86,216.31h0Z"/>
      <path class="st0" d="M297.02,296.42h0c-11.98-16.09-28.69-17.06-38.83,1.66-16.18,29.56-7.52,108.2,18.72,130.24,14.26,11.9,27.73,1.75,33.85-12.86,12.68-30.09,5.6-92.8-13.82-119.04h.09,0ZM300.61,405.05c-3.06,9.89-8.66,22.22-18.54,9.8-16.45-20.64-21.78-66.21-17.76-91.93,1.84-11.46,8.57-37.61,22.22-18.72h0c16.01,22.22,22.04,74.87,14.08,100.85h0Z"/>
      <path class="st0" d="M297.02,296.42h0c-11.98-16.09-28.69-17.06-38.83,1.66-16.18,29.56-7.52,108.2,18.72,130.24,14.26,11.9,27.73,1.75,33.85-12.86,12.68-30.09,5.6-92.8-13.82-119.04h.09,0ZM300.61,405.05c-3.06,9.89-8.66,22.22-18.54,9.8-16.45-20.64-21.78-66.21-17.76-91.93,1.84-11.46,8.57-37.61,22.22-18.72h0c16.01,22.22,22.04,74.87,14.08,100.85h0Z"/>
    </g>
  </g>
  <g id="svg2">
    <g>
      <animateTransform accumulate="none" additive="replace" attributeName="transform" calcMode="linear" dur="2s" fill="remove" keyTimes="0;0.2;0.5;0.7;1" repeatCount="indefinite" restart="always" type="translate" values="0,0;0,-30;0,0;0,10;0,0"/>
      <animateTransform accumulate="none" additive="replace" attributeName="transform" calcMode="linear" dur="2s" fill="remove" keyTimes="0;0.2;0.5;0.7;1" repeatCount="indefinite" restart="always" type="rotate" values="0 220 340;-15 220 340;0 220 340;10 220 340;0 220 340"/>
      <path class="st1" d="M667.31,455.87l-83.52.16c-7.24,2.09-6.63,11.98,1.14,12.92h82.38c8.52-1.02,8.2-12.11,0-13.08ZM666.63,259.54l-82.19.16c-7.5,1.35-7.63,12.02-.16,12.91,28.57-.36,57.33.65,85.79-.52,6.37-3.79,3.43-12.03-3.43-12.55h0ZM699.02,327.03c-1.19-13.78-14.38-22.17-27.63-20.36-9.79,1.34-17.47,9.73-19.4,19.13,1.78,29.05-2.55,61.31-.08,89.98,2.27,26.34,41.16,28.37,46.93,2.43-1.62-29.41,2.69-62.17.18-91.19h0ZM685.88,415.72c-3.13,11.29-18.38,10.54-20.89-.59v-86.79c.3-3.51,4.36-7.95,7.69-8.63,6.46-1.34,13.01,2.37,13.27,9.28l-.07,86.74h0ZM699.02,327.03c-1.19-13.78-14.38-22.17-27.63-20.36-9.79,1.34-17.47,9.73-19.4,19.13,1.78,29.05-2.55,61.31-.08,89.98,2.27,26.34,41.16,28.37,46.93,2.43-1.62-29.41,2.69-62.17.18-91.19h0ZM685.88,415.72c-3.13,11.29-18.38,10.54-20.89-.59v-86.79c.3-3.51,4.36-7.95,7.69-8.63,6.46-1.34,13.01,2.37,13.27,9.28l-.07,86.74h0ZM584.27,272.6c28.57-.36,57.33.65,85.79-.52,6.37-3.79,3.43-12.03-3.43-12.55l-82.19.16c-7.5,1.35-7.63,12.02-.16,12.91h0ZM667.31,455.87l-83.52.16c-7.24,2.09-6.63,11.98,1.14,12.92h82.38c8.52-1.02,8.2-12.11,0-13.08ZM734.32,298.32c-1.8-34.71-22.87-63.07-56.15-73.44-1.19-6.4,1.81-21.93-1.38-27-.39-.62-3.14-2.92-3.61-2.92h-10.13v-19.24c0-2.83-4.11-5.32-6.83-5.58-18.67-1.71-39.92,1.35-58.87.02-2.29-.32-6.2,3.69-6.2,5.56v19.24h-10.13c-.47,0-3.22,2.3-3.61,2.92-3.3,5.24.04,20.58-1.58,27.13-33.2,10.26-54.16,38.78-55.95,73.31-2.93,56.88,2.19,116.32.12,173.46,1.44,17.1,12.21,28.5,28.67,32.37h153.59c1.14-.21,2.23-.43,3.27-.66,16.02-1.67,27.73-16.03,28.67-31.72-2.08-57.14,3.05-116.58.12-173.46h0ZM604.22,183.22h45.75v11.74h-45.75s0-11.74,0-11.74ZM589.19,208h75.82v13.38h-75.82v-13.38h0ZM721.24,469.94c-.28,11.15-8.2,19.99-19.29,21.19l-150.93-.09c-8.16-.76-18.05-10.31-18.05-18.52v-35.55h97.06c3,0,5.87-5.32,5.58-8.13l-.02-115.48c.16-2.31-2.61-6.85-4.91-6.85h-96.73c-1.39,0-1.05-6.74-1-8.17,1.26-34.44,28.07-61.49,62.41-63.61,18.48-1.13,45.64-1.19,64.08.03,29.12,1.94,54.3,22.78,60.14,51.52,3.74,60.94.57,122.49,1.65,183.67h0ZM532.98,423.92v-104.37h89.54v104.37h-89.54ZM699.02,327.03c-1.19-13.78-14.38-22.17-27.63-20.36-9.79,1.34-17.47,9.73-19.4,19.13,1.78,29.05-2.55,61.31-.08,89.98,2.27,26.34,41.16,28.37,46.93,2.43-1.62-29.41,2.69-62.17.18-91.19h0ZM685.88,415.72c-3.13,11.29-18.38,10.54-20.89-.59v-86.79c.3-3.51,4.36-7.95,7.69-8.63,6.46-1.34,13.01,2.37,13.27,9.28l-.07,86.74h0ZM670.07,272.09c6.37-3.79,3.43-12.03-3.43-12.55l-82.19.16c-7.5,1.35-7.63,12.02-.16,12.91,28.57-.36,57.33.65,85.79-.52h0ZM667.31,455.87l-83.52.16c-7.24,2.09-6.63,11.98,1.14,12.92h82.38c8.52-1.02,8.2-12.11,0-13.08ZM667.31,455.87l-83.52.16c-7.24,2.09-6.63,11.98,1.14,12.92h82.38c8.52-1.02,8.2-12.11,0-13.08ZM666.63,259.54l-82.19.16c-7.5,1.35-7.63,12.02-.16,12.91,28.57-.36,57.33.65,85.79-.52,6.37-3.79,3.43-12.03-3.43-12.55h0ZM699.02,327.03c-1.19-13.78-14.38-22.17-27.63-20.36-9.79,1.34-17.47,9.73-19.4,19.13,1.78,29.05-2.55,61.31-.08,89.98,2.27,26.34,41.16,28.37,46.93,2.43-1.62-29.41,2.69-62.17.18-91.19h0ZM685.88,415.72c-3.13,11.29-18.38,10.54-20.89-.59v-86.79c.3-3.51,4.36-7.95,7.69-8.63,6.46-1.34,13.01,2.37,13.27,9.28l-.07,86.74h0ZM699.02,327.03c-1.19-13.78-14.38-22.17-27.63-20.36-9.79,1.34-17.47,9.73-19.4,19.13,1.78,29.05-2.55,61.31-.08,89.98,2.27,26.34,41.16,28.37,46.93,2.43-1.62-29.41,2.69-62.17.18-91.19h0ZM685.88,415.72c-3.13,11.29-18.38,10.54-20.89-.59v-86.79c.3-3.51,4.36-7.95,7.69-8.63,6.46-1.34,13.01,2.37,13.27,9.28l-.07,86.74h0ZM666.63,259.54l-82.19.16c-7.5,1.35-7.63,12.02-.16,12.91,28.57-.36,57.33.65,85.79-.52,6.37-3.79,3.43-12.03-3.43-12.55h0ZM667.31,455.87l-83.52.16c-7.24,2.09-6.63,11.98,1.14,12.92h82.38c8.52-1.02,8.2-12.11,0-13.08Z"/>
      <path class="st1" d="M705.53,503.5v.66h-3.27c.57-1.11,2.24-.55,3.27-.66Z"/>
      <path class="st1" d="M705.53,503.5v.66h-3.27c.57-1.11,2.24-.55,3.27-.66Z"/>
      <path class="st1" d="M667.31,468.95h-82.38c-7.77-.93-8.38-10.82-1.14-12.92l83.52-.16c8.2.98,8.52,12.06,0,13.08Z"/>
      <path class="st1" d="M667.31,468.95h-82.38c-7.77-.93-8.38-10.82-1.14-12.92l83.52-.16c8.2.98,8.52,12.06,0,13.08Z"/>
      <path class="st1" d="M584.44,259.7l82.19-.16c6.87.52,9.8,8.76,3.43,12.55-28.46,1.16-57.23.16-85.79.52-7.47-.89-7.34-11.55.16-12.91h0Z"/>
      <path class="st1" d="M584.44,259.7l82.19-.16c6.87.52,9.8,8.76,3.43,12.55-28.46,1.16-57.23.16-85.79.52-7.47-.89-7.34-11.55.16-12.91h0Z"/>
      <path class="st1" d="M699.02,327.03c-1.19-13.78-14.38-22.17-27.63-20.36-9.79,1.34-17.47,9.73-19.4,19.13,1.78,29.05-2.55,61.31-.08,89.98,2.27,26.34,41.16,28.37,46.93,2.43-1.62-29.41,2.69-62.17.18-91.19h0ZM685.88,415.72c-3.13,11.29-18.38,10.54-20.89-.59v-86.79c.3-3.51,4.36-7.95,7.69-8.63,6.46-1.34,13.01,2.37,13.27,9.28l-.07,86.74h0Z"/>
      <path class="st1" d="M699.02,327.03c-1.19-13.78-14.38-22.17-27.63-20.36-9.79,1.34-17.47,9.73-19.4,19.13,1.78,29.05-2.55,61.31-.08,89.98,2.27,26.34,41.16,28.37,46.93,2.43-1.62-29.41,2.69-62.17.18-91.19h0ZM685.88,415.72c-3.13,11.29-18.38,10.54-20.89-.59v-86.79c.3-3.51,4.36-7.95,7.69-8.63,6.46-1.34,13.01,2.37,13.27,9.28l-.07,86.74h0Z"/>
      <path class="st1" d="M699.02,327.03c-1.19-13.78-14.38-22.17-27.63-20.36-9.79,1.34-17.47,9.73-19.4,19.13,1.78,29.05-2.55,61.31-.08,89.98,2.27,26.34,41.16,28.37,46.93,2.43-1.62-29.41,2.69-62.17.18-91.19h0ZM685.88,415.72c-3.13,11.29-18.38,10.54-20.89-.59v-86.79c.3-3.51,4.36-7.95,7.69-8.63,6.46-1.34,13.01,2.37,13.27,9.28l-.07,86.74h0Z"/>
      <path class="st1" d="M699.02,327.03c-1.19-13.78-14.38-22.17-27.63-20.36-9.79,1.34-17.47,9.73-19.4,19.13,1.78,29.05-2.55,61.31-.08,89.98,2.27,26.34,41.16,28.37,46.93,2.43-1.62-29.41,2.69-62.17.18-91.19h0ZM685.88,415.72c-3.13,11.29-18.38,10.54-20.89-.59v-86.79c.3-3.51,4.36-7.95,7.69-8.63,6.46-1.34,13.01,2.37,13.27,9.28l-.07,86.74h0Z"/>
      <path class="st1" d="M670.07,272.09c-28.46,1.16-57.23.16-85.79.52-7.47-.89-7.34-11.55.16-12.91l82.19-.16c6.87.52,9.8,8.76,3.43,12.55h0Z"/>
      <path class="st1" d="M670.07,272.09c-28.46,1.16-57.23.16-85.79.52-7.47-.89-7.34-11.55.16-12.91l82.19-.16c6.87.52,9.8,8.76,3.43,12.55h0Z"/>
      <path class="st1" d="M667.31,468.95h-82.38c-7.77-.93-8.38-10.82-1.14-12.92l83.52-.16c8.2.98,8.52,12.06,0,13.08Z"/>
      <path class="st1" d="M667.31,468.95h-82.38c-7.77-.93-8.38-10.82-1.14-12.92l83.52-.16c8.2.98,8.52,12.06,0,13.08Z"/>
    </g>
  </g>
  <g id="svg3">
    <g>
      <animateTransform accumulate="none" additive="replace" attributeName="transform" calcMode="linear" dur="2s" fill="remove" keyTimes="0;0.2;0.5;0.7;1" repeatCount="indefinite" restart="always" type="translate" values="0,0;0,-30;0,0;0,10;0,0"/>
      <animateTransform accumulate="none" additive="replace" attributeName="transform" calcMode="linear" dur="2s" fill="remove" keyTimes="0;0.2;0.5;0.7;1" repeatCount="indefinite" restart="always" type="rotate" values="0 170 340;10 170 340;0 170 340;-10 170 340;0 170 340"/>
      <path class="st0" d="M1106.14,342.19c-.91-4.39-4.43-21.68-6.32-24.37-3.09-4.37-9.3-2.08-9.14,3.24,4.36,14.64,7.18,29.7,9.78,44.75h-97.43c4.55-7.61,10.4-14.41,14.73-22.17,12.41-22.26,16.25-48.49,16.01-73.77h37.27c2.07,5.44,5,10.55,7.3,15.88,2.13,4.9,4.85,14.91,7.43,18.68,2.21,3.25,7.84,2.67,8.67-1.1.73-3.36-4.51-15.25-6.1-19.08-1.99-4.8-9.26-17.24-9.97-20.74-1.91-9.37-.39-29.62,3.66-38.47,6.32-13.78,11.44-15.57,22.3-24.08,4.31-3.39,2.83-5.48.57-9.62-17.01-31.23-54.17-18.86-83.25-21.35-5.67.06-6.43,8.5-1.15,9.67,16.58,1.39,35.07-1.43,51.43.21,9.02.9,19.24,6.46,23.01,14.94-12.78,8.46-20.33,21.2-25.65,35.26l-38.36-.16c-13.35-16.54-33.15-25.25-52.77-32.18v-17.95h25.17c.3,0,2.72-1.8,2.98-2.24,1.88-3.12.18-6.44-3.13-7.41-15.92.17-33.08-1.07-48.83,1.24-6.59.96-10.94,5.23-11.55,11.97-.49,5.58-.58,14.19,3.54,18.39,5.06,5.2,18.8,3.64,26.08,4.97,1.56.28,11.53,3.23,11.59,4.08-4.5,9.66-10.46,18.33-17.29,26.44-3.81,4.51-9.41,7.42-10.15,14.02-.66,5.99,1.1,11.28,6.45,14.46,8.4,5.01,15.44.15,22.67-4.32,12.81-7.92,23.52-19.01,32.02-31.32.59,0,5.33,5.7,5.55,6.86,1.92,9.98-1.9,24.81.66,35.23-.35,21.67-3.22,44.9-13.39,64.29-4.6,8.76-11.47,16.65-16.57,25.24-18.43,31.08-26.57,68.25-23.66,104.28,1.35,16.83,3.14,33.33,22.23,38.19h96.12c13.39-3.44,18.46-10.82,20.82-23.94,7.77-43.13,5.56-95.22-3.37-138.04l.02.02h0ZM1033.1,239.85h35.31v20.23h-35.31v-20.23h0ZM968.37,196.12l-13.94-.78c-2.84-.63-2.02-12.35-1.13-13.26,1.5-1.51,12.28-1.36,15.05-1.61v15.66h0s0,0,0,0ZM988.28,247.66c-2.9,2.3-14.63,10.49-17.63,10.5-1.73,0-3.89-1.13-4.24-2.98-.99-5.23,5.76-9.12,8.84-12.7,7.3-8.52,12.99-18.06,18.27-27.93,1.37-.2,15.7,8.06,15.95,9.39-5.11,8.84-13.08,17.3-21.19,23.71h0s0,0,0,0ZM1102.42,459.13h-70.95c-1.27,0-4.15,3.4-4.24,4.94-.09,1.36,2.07,4.85,2.94,4.85h70.95c-1.6,12.27-1.17,24.34-16.64,25.47-29.02,2.15-60.82-1.53-90.12-.18-12.43-2.75-12.76-14.8-13.56-25.29h33.68c3.97,0,4.02-9.79-1.31-9.79h-33.03c-.39-3.42-.75-6.67-.68-10.15.33-18.58,4.17-39.2,10.65-56.57,2.13-5.7,4.71-11.81,8-16.81h103.64l2.64,37.5c.06,15.39-1.1,30.71-1.99,46.03h0s0,0,0,0Z"/>
    </g>
  </g>
  <g id="svg4">
    <g>
      <animateTransform accumulate="none" additive="replace" attributeName="transform" calcMode="linear" dur="2s" fill="remove" keyTimes="0;0.2;0.5;0.7;1" repeatCount="indefinite" restart="always" type="translate" values="0,0;0,-30;0,0;0,10;0,0"/>
      <animateTransform accumulate="none" additive="replace" attributeName="transform" calcMode="linear" dur="2s" fill="remove" keyTimes="0;0.2;0.5;0.7;1" repeatCount="indefinite" restart="always" type="rotate" values="0 230 340;-10 230 340;0 230 340;10 230 340;0 230 340"/>
      <path class="st1" d="M1498.83,258.37c-12.49-7.99-39.7-19.81-52.19-7.36-15.7,15.68,8.32,41.41,20.83,51.09,13.1,10.15,46.87,26.97,59.89,10.15,13.81-17.85-14.49-44.91-28.53-53.89h0ZM1500.21,307.41c-14.71-4.07-30.64-14.91-40.01-26.85-4.64-5.92-14.89-22.11-1.5-24.38,16.94-2.87,44.31,15.59,54.21,28.72,12.02,15.96,10.74,29-12.72,22.51h.01Z"/>
      <path class="st1" d="M1498.83,258.37c-12.49-7.99-39.7-19.81-52.19-7.36-15.7,15.68,8.32,41.41,20.83,51.09,13.1,10.15,46.87,26.97,59.89,10.15,13.81-17.85-14.49-44.91-28.53-53.89h0ZM1500.21,307.41c-14.71-4.07-30.64-14.91-40.01-26.85-4.64-5.92-14.89-22.11-1.5-24.38,16.94-2.87,44.31,15.59,54.21,28.72,12.02,15.96,10.74,29-12.72,22.51h.01Z"/>
      <path class="st1" d="M1498.83,258.37c-12.49-7.99-39.7-19.81-52.19-7.36-15.7,15.68,8.32,41.41,20.83,51.09,13.1,10.15,46.87,26.97,59.89,10.15,13.81-17.85-14.49-44.91-28.53-53.89h0ZM1500.21,307.41c-14.71-4.07-30.64-14.91-40.01-26.85-4.64-5.92-14.89-22.11-1.5-24.38,16.94-2.87,44.31,15.59,54.21,28.72,12.02,15.96,10.74,29-12.72,22.51h.01Z"/>
      <path class="st1" d="M1561.19,319.2c-2.54-44.08-33.79-82.98-77.38-92.32-16.05-3.44-31.5-.38-46.61-7.82-5.08-2.51-19.06-12.79-20.67-17.99-3.03-9.79,5.7-29.16-13.05-30.83-7.89-.71-30.6-1.04-37.92.18-6.39,1.07-10.36,7.2-10.97,13.27-.46,4.53.95,13.21-.14,16.88-.22.73-7.23,8.51-8.55,10.46-6.89,10.22-10.48,21.94-11.65,34.19l-.04,225.22c1.35,18.2,14.29,31.82,32.5,33.68l161.37.04c18.52-1.52,31.76-15.26,33.13-33.72-2.18-49.71,2.83-101.79-.04-151.24h0s0,0,0,0ZM1365.08,183.02c0-1.92,2.82-2.2,4.23-2.31,7.49-.64,26.4-.96,33.51,0,.86.11,2.92.84,2.92,1.67v15.38h-39.69c-.05,0-.98-.92-.98-.99v-13.75h0ZM1344.75,350.94h205.96v106.71h-205.96v-106.71h0ZM1527.45,493.68l-161.31-.1c-12.6-2.04-21.79-12.6-21.39-25.46h205.96c.34,13.52-9.68,24.59-23.25,25.56h-.01ZM1550.7,340.48h-205.95v-97.22c0-5.9,5.09-18.66,8.18-23.91,1.44-2.43,6.19-9.26,8.16-10.84.73-.6,1.29-1.03,2.31-.96l44.51.15c12.31,16.22,30.13,25.9,50.61,27.4,3.62.27,7.54-.29,11.18-.02,39.1,2.98,72.28,33.79,79.38,72,2.08,11.15,1.67,22.1,1.63,33.4h-.02,0Z"/>
      <path class="st1" d="M1498.83,258.37c-12.49-7.99-39.7-19.81-52.19-7.36-15.7,15.68,8.32,41.41,20.83,51.09,13.1,10.15,46.87,26.97,59.89,10.15,13.81-17.85-14.49-44.91-28.53-53.89h0ZM1500.21,307.41c-14.71-4.07-30.64-14.91-40.01-26.85-4.64-5.92-14.89-22.11-1.5-24.38,16.94-2.87,44.31,15.59,54.21,28.72,12.02,15.96,10.74,29-12.72,22.51h.01Z"/>
    </g>
  </g>
</svg>